<svg xmlns="http://www.w3.org/2000/svg" width="21" height="21" viewBox="0 0 21 21">
    <path fill="#78909C" d="M12.038 0H2.625C1.181 0 0 .945 0 2.1v16.8C0 20.055 1.181 21 2.625 21h15.75C19.819 21 21 20.055 21 18.9V7.17c0-.557-.277-1.092-.77-1.485L13.895.615C13.402.222 12.734 0 12.038 0zM10.14 16.453l-1.873-1.555-1.808 1.55c-.563.468-1.479.468-2.042 0-.564-.467-.564-1.228 0-1.695l2.828-2.385c.564-.475 1.484-.477 2.052-.007l1.859 1.543 3.373-2.75c.563-.467 1.48-.467 2.043 0 .563.468.563 1.228 0 1.696l-4.395 3.607c-.565.465-1.475.462-2.037-.004zm1.674-9.103V1.575L19.35 7.35h-7.538z"/>
</svg>
