<svg xmlns="http://www.w3.org/2000/svg" width="51" height="50" viewBox="0 0 51 50">
    <g fill="#FFF">
        <g opacity=".4">
            <path d="M20.668 0L20.413.139 20.349.193 20.058.86 20.426 1.489 21.159 1.575 21.414 1.432 21.478 1.382 21.769.715 21.401.089zM18.032 1.493L17.742 1.521 17.661 1.543 17.119 2.036 17.196 2.761 17.832 3.131 18.126 3.099 18.203 3.077 18.745 2.584 18.668 1.863zM14.586 2.128L14.502 2.134 13.869 2.514 13.801 3.235 14.35 3.722 14.64 3.747 14.721 3.744 15.354 3.365 15.425 2.644 14.876 2.153zM11.194 2.242L10.533 2.565 10.394 3.276 10.897 3.81 11.181 3.861 11.265 3.864 11.93 3.542 12.065 2.83 11.565 2.299 11.278 2.245zM7.799 2.391L7.719 2.4 7.096 2.792 7.048 3.516 7.606 3.988 7.896 4.01 7.98 3.997 8.6 3.605 8.651 2.884 8.093 2.41zM4.543 3.112L4.26 3.178 4.185 3.213 3.711 3.769 3.888 4.475 4.569 4.759 4.853 4.693 4.927 4.658 5.399 4.098 5.224 3.393zM2.133 5.031L1.397 5.113 1.188 5.309 1.139 5.376 1.01 6.087 1.513 6.615 2.249 6.536 2.462 6.34 2.511 6.274 2.64 5.562zM.626 8.108L.068 8.579.003 8.857 0 8.94.3 9.6 1.023 9.759 1.588 9.284 1.649 9.006 1.652 8.927 1.349 8.266z" transform="rotate(53 12.98 26.551)"/>
        </g>
        <g opacity=".2">
            <path d="M6.393 0C2.335 0 .11 2.303 0 5.476h3.208c.11-1.637 1.245-2.678 3.007-2.678 1.723 0 2.87 1 2.87 2.395 0 1.325-.574 2.032-2.267 3.036-1.887 1.086-2.68 2.292-2.555 4.3l.015.804h3.167v-.654c0-1.329.505-2.01 2.293-3.04 1.86-1.086 2.896-2.518 2.896-4.565 0-2.96-2.502-5.074-6.24-5.074zM5.831 16.19c-1.17 0-1.944.752-1.944 1.909 0 1.15.775 1.901 1.944 1.901 1.196 0 1.944-.751 1.944-1.901 0-1.157-.748-1.909-1.944-1.909z" transform="rotate(-28 51.102 -6.57)"/>
        </g>
        <g opacity=".2">
            <path d="M4.475 0C1.635 0 .077 1.612 0 3.833h2.246c.077-1.146.871-1.875 2.104-1.875 1.207 0 2.01.7 2.01 1.677 0 .928-.402 1.422-1.587 2.125-1.321.76-1.876 1.605-1.789 3.01l.01.563h2.217v-.458c0-.93.354-1.406 1.605-2.128 1.303-.76 2.028-1.763 2.028-3.195C8.844 1.48 7.093 0 4.475 0zM4.082 11.333c-.819 0-1.36.526-1.36 1.336 0 .805.541 1.331 1.36 1.331.837 0 1.36-.526 1.36-1.33 0-.81-.523-1.337-1.36-1.337z" transform="translate(0 4)"/>
        </g>
        <g opacity=".2">
            <path d="M6.694.38C2.518.38.23 2.798.116 6.13h3.3c.114-1.719 1.282-2.812 3.095-2.812 1.773 0 2.953 1.05 2.953 2.515 0 1.391-.59 2.133-2.332 3.188-1.942 1.14-2.758 2.406-2.63 4.515l.016.844h3.258v-.687c0-1.395.52-2.11 2.36-3.192 1.914-1.14 2.98-2.644 2.98-4.793C13.116 2.6 10.542.38 6.694.38zM6.564 17.265c-1.203 0-2 .79-2 2.004 0 1.207.797 1.996 2 1.996 1.23 0 2-.79 2-1.996 0-1.215-.77-2.004-2-2.004z" transform="rotate(9 -147.034 246.859)"/>
        </g>
    </g>
</svg>
