<svg xmlns="http://www.w3.org/2000/svg" width="60" height="63" viewBox="0 0 60 63">
    <defs>
        <filter id="prefix__a" width="114.4%" height="171.1%" x="-7.2%" y="-35.5%" filterUnits="objectBoundingBox">
            <feOffset dy="2" in="SourceAlpha" result="shadowOffsetOuter1"/>
            <feGaussianBlur in="shadowOffsetOuter1" result="shadowBlurOuter1" stdDeviation="6"/>
            <feColorMatrix in="shadowBlurOuter1" result="shadowMatrixOuter1" values="0 0 0 0 0 0 0 0 0 0 0 0 0 0 0 0 0 0 0.07 0"/>
            <feMerge>
                <feMergeNode in="shadowMatrixOuter1"/>
                <feMergeNode in="SourceGraphic"/>
            </feMerge>
        </filter>
    </defs>
    <g fill="#78909C" filter="url(#prefix__a)" transform="translate(-83 13)">
        <path d="M120.455 9.7h-4.565c-.45-1.28-1.65-2.2-3.072-2.2-1.422 0-2.621.92-3.072 2.2h-4.564c-1.206 0-2.182.984-2.182 2.2v15.4c0 1.215.976 2.2 2.182 2.2h15.273c1.205 0 2.181-.985 2.181-2.2V11.9c0-1.216-.976-2.2-2.181-2.2zm-7.637 0c.602 0 1.091.493 1.091 1.1 0 .607-.489 1.1-1.09 1.1-.603 0-1.092-.493-1.092-1.1 0-.607.489-1.1 1.091-1.1zm-3.273 15.4h-2.181v-2.2l6.704-6.76 2.182 2.2-6.705 6.76zm8.276-8.345l-.798.806-2.182-2.2.798-.806c.602-.607 1.58-.607 2.182 0 .602.608.602 1.593 0 2.2z"/>
    </g>
</svg>
