<svg xmlns="http://www.w3.org/2000/svg" width="60" height="62" viewBox="0 0 60 62">
    <defs>
        <filter id="prefix__a" width="114.4%" height="171.1%" x="-7.2%" y="-35.5%" filterUnits="objectBoundingBox">
            <feOffset dy="2" in="SourceAlpha" result="shadowOffsetOuter1"/>
            <feGaussianBlur in="shadowOffsetOuter1" result="shadowBlurOuter1" stdDeviation="6"/>
            <feColorMatrix in="shadowBlurOuter1" result="shadowMatrixOuter1" values="0 0 0 0 0 0 0 0 0 0 0 0 0 0 0 0 0 0 0.07 0"/>
            <feMerge>
                <feMergeNode in="shadowMatrixOuter1"/>
                <feMergeNode in="SourceGraphic"/>
            </feMerge>
        </filter>
    </defs>
    <g fill="#78909C" filter="url(#prefix__a)" transform="translate(-234 12)">
        <path d="M271.455 10.2h-4.565c-.45-1.28-1.65-2.2-3.072-2.2-1.422 0-2.621.92-3.072 2.2h-4.564c-1.206 0-2.182.984-2.182 2.2v15.4c0 1.215.976 2.2 2.182 2.2h15.273c1.205 0 2.181-.985 2.181-2.2V12.4c0-1.216-.976-2.2-2.181-2.2zm-7.637 0c.602 0 1.091.493 1.091 1.1 0 .607-.489 1.1-1.09 1.1-.603 0-1.092-.493-1.092-1.1 0-.607.489-1.1 1.091-1.1zm3.273 12.1h-2.182v2.2c0 .607-.489 1.1-1.09 1.1-.603 0-1.092-.493-1.092-1.1v-2.2h-2.182c-.602 0-1.09-.493-1.09-1.1 0-.607.488-1.1 1.09-1.1h2.182v-2.2c0-.607.489-1.1 1.091-1.1s1.091.493 1.091 1.1v2.2h2.182c.602 0 1.09.493 1.09 1.1 0 .607-.488 1.1-1.09 1.1z"/>
    </g>
</svg>
