<svg xmlns="http://www.w3.org/2000/svg" width="21" height="21" viewBox="0 0 21 21">
    <g fill="none" fill-rule="evenodd">
        <path fill="#78909C" fill-rule="nonzero" d="M20.927 9.488c-.177-1.868-.843-3.592-1.87-5.046l-7.835 7.835c-.41.41-1.075.41-1.484 0L5.59 8.13c-.41-.41-.41-1.076 0-1.485.41-.41 1.075-.41 1.485 0l3.405 3.405 7.197-7.197C16.037 1.306 13.9.276 11.53.038 11.217.013 10.866 0 10.48 0c-.386 0-.736.013-1.049.038C4.471.531.527 4.476.035 9.436.012 9.769 0 10.129 0 10.515s.011.727.033 1.02c.495 4.979 4.465 8.934 9.45 9.404.297.037.63.055.997.052.367-.002.735-.025 1.103-.067 4.918-.515 8.825-4.419 9.34-9.336.028-.329.042-.687.042-1.073 0-.386-.012-.729-.038-1.027z"/>
        <path fill="#FFF" d="M5.131 9.829l3.622-3.497c.08-.077.081-.204.005-.283-.037-.038-.088-.06-.14-.061l-3.76-.066-.066 3.76c-.002.11.086.201.197.203.053 0 .104-.02.142-.056z"/>
    </g>
</svg>
